<svg width="14" height="16" viewBox="0 0 14 16" fill="none" xmlns="http://www.w3.org/2000/svg">
<path d="M14 11.6827C13.7387 12.484 13.3266 13.2853 12.7638 14.0865C11.8995 15.3429 11.0385 15.9712 10.1809 15.9712C9.8526 15.9712 9.38358 15.8686 8.77387 15.6635C8.19765 15.4583 7.69179 15.3558 7.25628 15.3558C6.84757 15.3558 6.37186 15.4615 5.82915 15.6731C5.28643 15.891 4.84422 16 4.50251 16C3.48409 16 2.47571 15.1699 1.47739 13.5096C0.492462 11.8365 0 10.2244 0 8.67308C0 7.21154 0.378559 6.01282 1.13568 5.07692C1.8928 4.15385 2.84422 3.69231 3.98995 3.69231C4.47236 3.69231 5.06533 3.78846 5.76884 3.98077C6.46566 4.17308 6.92797 4.26923 7.15578 4.26923C7.45729 4.26923 7.93635 4.16026 8.59297 3.94231C9.27638 3.72436 9.85595 3.61538 10.3317 3.61538C11.129 3.61538 11.8425 3.82372 12.4724 4.24038C12.8208 4.47115 13.1692 4.79167 13.5176 5.20192C12.9883 5.63141 12.6064 6.00962 12.3719 6.33654C11.9363 6.9391 11.7186 7.60256 11.7186 8.32692C11.7186 9.1218 11.9497 9.83654 12.4121 10.4712C12.8744 11.1058 13.4037 11.5096 14 11.6827ZM10.2211 0.403846C10.2211 0.794872 10.124 1.23077 9.92965 1.71154C9.72864 2.19231 9.41709 2.63462 8.99498 3.03846C8.63317 3.38462 8.27136 3.61538 7.90955 3.73077C7.66164 3.80128 7.31323 3.85577 6.86432 3.89423C6.88442 2.9391 7.14573 2.11538 7.64824 1.42308C8.14405 0.73718 8.98157 0.262821 10.1608 0C10.1675 0.0192308 10.1759 0.0544872 10.1859 0.105769C10.196 0.157051 10.2044 0.192308 10.2111 0.211538C10.2111 0.23718 10.2127 0.269231 10.2161 0.307692C10.2194 0.346154 10.2211 0.378205 10.2211 0.403846Z" fill="white"/>
<path d="M14 11.6827C13.7387 12.484 13.3266 13.2853 12.7638 14.0865C11.8995 15.3429 11.0385 15.9712 10.1809 15.9712C9.8526 15.9712 9.38358 15.8686 8.77387 15.6635C8.19765 15.4583 7.69179 15.3558 7.25628 15.3558C6.84757 15.3558 6.37186 15.4615 5.82915 15.6731C5.28643 15.891 4.84422 16 4.50251 16C3.48409 16 2.47571 15.1699 1.47739 13.5096C0.492462 11.8365 0 10.2244 0 8.67308C0 7.21154 0.378559 6.01282 1.13568 5.07692C1.8928 4.15385 2.84422 3.69231 3.98995 3.69231C4.47236 3.69231 5.06533 3.78846 5.76884 3.98077C6.46566 4.17308 6.92797 4.26923 7.15578 4.26923C7.45729 4.26923 7.93635 4.16026 8.59297 3.94231C9.27638 3.72436 9.85595 3.61538 10.3317 3.61538C11.129 3.61538 11.8425 3.82372 12.4724 4.24038C12.8208 4.47115 13.1692 4.79167 13.5176 5.20192C12.9883 5.63141 12.6064 6.00962 12.3719 6.33654C11.9363 6.9391 11.7186 7.60256 11.7186 8.32692C11.7186 9.1218 11.9497 9.83654 12.4121 10.4712C12.8744 11.1058 13.4037 11.5096 14 11.6827ZM10.2211 0.403846C10.2211 0.794872 10.124 1.23077 9.92965 1.71154C9.72864 2.19231 9.41709 2.63462 8.99498 3.03846C8.63317 3.38462 8.27136 3.61538 7.90955 3.73077C7.66164 3.80128 7.31323 3.85577 6.86432 3.89423C6.88442 2.9391 7.14573 2.11538 7.64824 1.42308C8.14405 0.73718 8.98157 0.262821 10.1608 0C10.1675 0.0192308 10.1759 0.0544872 10.1859 0.105769C10.196 0.157051 10.2044 0.192308 10.2111 0.211538C10.2111 0.23718 10.2127 0.269231 10.2161 0.307692C10.2194 0.346154 10.2211 0.378205 10.2211 0.403846Z" fill="#4E5D78"/>
</svg>
